<svg xmlns="http://www.w3.org/2000/svg" viewBox="0 0 1024 1024" role="img" aria-labelledby="title desc">
  <title id="title">SafeLens icon</title>
  <desc id="desc">A geometric lens and privacy shield mark.</desc>
  <defs>
    <linearGradient id="bg" x1="152" y1="112" x2="872" y2="912" gradientUnits="userSpaceOnUse">
      <stop stop-color="#ffffff"/>
      <stop offset="1" stop-color="#eef7ff"/>
    </linearGradient>
    <linearGradient id="accent" x1="300" y1="312" x2="724" y2="728" gradientUnits="userSpaceOnUse">
      <stop stop-color="#7fc8ff"/>
      <stop offset="1" stop-color="#4aa7f2"/>
    </linearGradient>
    <linearGradient id="amber" x1="512" y1="150" x2="512" y2="868" gradientUnits="userSpaceOnUse">
      <stop stop-color="#a8dcff"/>
      <stop offset="1" stop-color="#6bbcf8"/>
    </linearGradient>
  </defs>

  <rect width="1024" height="1024" fill="url(#bg)"/>

  <path d="M512 150 780 272v228c0 166-96 291-268 367-172-76-268-201-268-367V272l268-122Z" fill="#ffffff"/>
  <path
    d="M512 150 780 272v228c0 166-96 291-268 367-172-76-268-201-268-367V272l268-122Z"
    fill="none"
    stroke="#d9e9f7"
    stroke-width="34"
    stroke-linejoin="round"
  />
  <circle cx="512" cy="520" r="172" fill="#f7fbff"/>
  <circle cx="512" cy="520" r="142" fill="none" stroke="#86c9ff" stroke-width="40"/>
  <circle cx="512" cy="520" r="76" fill="#dff2ff"/>
  <circle cx="512" cy="520" r="32" fill="#63b8f8"/>
  <circle cx="512" cy="520" r="15" fill="#ffffff"/>

  <path
    d="M332 590a194 194 0 0 1 0-140"
    fill="none"
    stroke="url(#accent)"
    stroke-width="34"
    stroke-linecap="round"
  />
  <path
    d="M692 450a194 194 0 0 1 0 140"
    fill="none"
    stroke="url(#accent)"
    stroke-width="34"
    stroke-linecap="round"
  />

  <rect x="500" y="386" width="24" height="268" rx="12" fill="#4aa7f2"/>
  <rect x="378" y="508" width="268" height="24" rx="12" fill="#4aa7f2"/>
</svg>
